# Alias OBJ Model File
# Exported from SketchUp, (c) 2000-2012 Trimble Navigation Limited
# File units = inches

mtllib test2.mtl

g Mesh1 Model

usemtl FrontColor
v -330.894 0 -119.42
vt 330.894 119.42
vn 0 -1 -0
v 220.043 0 -119.42
vt -220.043 119.42
v 220.043 0 177.392
vt -220.043 -177.392
v -330.894 0 177.392
vt 330.894 -177.392
f 1/1/1 2/2/1 3/3/1 4/4/1 

vt -220.043 0
vn 0 0 -1
vt 330.894 0
v -330.894 135.75 -119.42
vt 330.894 135.75
v 220.043 135.75 -119.42
vt -220.043 135.75
f 2/5/2 1/6/2 5/7/2 6/8/2 

vt -119.42 0
vn -1 0 -0
vt 177.392 0
v -330.894 135.75 177.392
vt 177.392 135.75
vt -119.42 135.75
f 1/9/3 4/10/3 7/11/3 5/12/3 

vt -330.894 0
vn 0 0 1
vt 220.043 0
v 220.043 135.75 177.392
vt 220.043 135.75
vt -330.894 135.75
f 4/13/4 3/14/4 8/15/4 7/16/4 

vt -177.392 0
vn 1 0 -0
vt 119.42 0
vt 119.42 135.75
vt -177.392 135.75
f 3/17/5 2/18/5 6/19/5 8/20/5 

vt 220.043 119.42
vn 0 1 -0
vt -330.894 119.42
vt -330.894 -177.392
vt 220.043 -177.392
f 6/21/6 5/22/6 7/23/6 8/24/6 

